<?xml version="1.0" encoding="UTF-8" standalone="no"?><!DOCTYPE svg PUBLIC "-//W3C//DTD SVG 1.1//EN" "http://www.w3.org/Graphics/SVG/1.1/DTD/svg11.dtd"><!-- Generated by graphviz version 2.40.1 (20161225.0304)
 --><!-- Title: G Pages: 1 --><svg xmlns="http://www.w3.org/2000/svg" xmlns:xlink="http://www.w3.org/1999/xlink" width="1082pt" height="1886pt" viewBox="0.00 0.00 1082.01 1886.20">
<g id="graph0" class="graph" transform="scale(1 1) rotate(0) translate(4 1882.2)">
<title>G</title>
<polygon fill="#ffffff" stroke="transparent" points="-4,4 -4,-1882.2 1078.0146,-1882.2 1078.0146,4 -4,4"/>
<g id="clust1" class="cluster">
<title>cluster_quad</title>
<polygon fill="none" stroke="#000000" points="702.0146,-806.8 702.0146,-1870.2 892.0146,-1870.2 892.0146,-806.8 702.0146,-806.8"/>
<text text-anchor="middle" x="797.0146" y="-1853.6" font-family="Times,serif" font-size="14.00" fill="#000000">The Quad</text>
</g>
<g id="clust2" class="cluster">
<title>cluster_17</title>
<polygon fill="#d3d3d3" stroke="#d3d3d3" points="774.0146,-1134.4 774.0146,-1236 884.0146,-1236 884.0146,-1134.4 774.0146,-1134.4"/>
<text text-anchor="middle" x="829.0146" y="-1219.4" font-family="Times,serif" font-size="14.00" fill="#000000">Kirkbride Hall</text>
</g>
<g id="clust3" class="cluster">
<title>cluster_0</title>
<polygon fill="#d3d3d3" stroke="#d3d3d3" points="710.0146,-814.8 710.0146,-916.4 884.0146,-916.4 884.0146,-814.8 710.0146,-814.8"/>
<text text-anchor="middle" x="797.0146" y="-899.8" font-family="Times,serif" font-size="14.00" fill="#000000">Smith Hall</text>
</g>
<g id="clust4" class="cluster">
<title>cluster_1</title>
<polygon fill="#d3d3d3" stroke="#d3d3d3" points="717.0146,-1735.8 717.0146,-1837.4 827.0146,-1837.4 827.0146,-1735.8 717.0146,-1735.8"/>
<text text-anchor="middle" x="772.0146" y="-1820.8" font-family="Times,serif" font-size="14.00" fill="#000000">Purnell Hall</text>
</g>
<g id="clust5" class="cluster">
<title>cluster_2</title>
<polygon fill="#d3d3d3" stroke="#d3d3d3" points="748.0146,-1446 748.0146,-1547.6 858.0146,-1547.6 858.0146,-1446 748.0146,-1446"/>
<text text-anchor="middle" x="803.0146" y="-1531" font-family="Times,serif" font-size="14.00" fill="#000000">Ewing Hall</text>
</g>
<g id="clust6" class="cluster">
<title>cluster_north</title>
<polygon fill="none" stroke="#000000" points="900.0146,-1268.8 900.0146,-1716.8 1066.0146,-1716.8 1066.0146,-1268.8 900.0146,-1268.8"/>
<text text-anchor="middle" x="983.0146" y="-1700.2" font-family="Times,serif" font-size="14.00" fill="#000000">Main St. / N. College Ave.</text>
</g>
<g id="clust7" class="cluster">
<title>cluster_4</title>
<polygon fill="#d3d3d3" stroke="#d3d3d3" points="908.0146,-1276.8 908.0146,-1378.4 1018.0146,-1378.4 1018.0146,-1276.8 908.0146,-1276.8"/>
<text text-anchor="middle" x="963.0146" y="-1361.8" font-family="Times,serif" font-size="14.00" fill="#000000">McDowell Hall</text>
</g>
<g id="clust8" class="cluster">
<title>cluster_3</title>
<polygon fill="#d3d3d3" stroke="#d3d3d3" points="908.0146,-1582.4 908.0146,-1684 1018.0146,-1684 1018.0146,-1582.4 908.0146,-1582.4"/>
<text text-anchor="middle" x="963.0146" y="-1667.4" font-family="Times,serif" font-size="14.00" fill="#000000">Willard Hall</text>
</g>
<g id="clust9" class="cluster">
<title>cluster_main_green</title>
<polygon fill="none" stroke="#000000" points="31.0146,-150.4 31.0146,-1411.2 442.0146,-1411.2 442.0146,-150.4 31.0146,-150.4"/>
<text text-anchor="middle" x="236.5146" y="-1394.6" font-family="Times,serif" font-size="14.00" fill="#000000">Main Green</text>
</g>
<g id="clust10" class="cluster">
<title>cluster_6</title>
<polygon fill="#d3d3d3" stroke="#d3d3d3" points="132.0146,-965.2 132.0146,-1066.8 242.0146,-1066.8 242.0146,-965.2 132.0146,-965.2"/>
<text text-anchor="middle" x="187.0146" y="-1050.2" font-family="Times,serif" font-size="14.00" fill="#000000">Gore Hall</text>
</g>
<g id="clust11" class="cluster">
<title>cluster_7</title>
<polygon fill="#d3d3d3" stroke="#d3d3d3" points="174.0146,-672.4 174.0146,-774 284.0146,-774 284.0146,-672.4 174.0146,-672.4"/>
<text text-anchor="middle" x="229.0146" y="-757.4" font-family="Times,serif" font-size="14.00" fill="#000000">Mitchell Hall</text>
</g>
<g id="clust12" class="cluster">
<title>cluster_8</title>
<polygon fill="#d3d3d3" stroke="#d3d3d3" points="68.0146,-415.4 68.0146,-517 178.0146,-517 178.0146,-415.4 68.0146,-415.4"/>
<text text-anchor="middle" x="123.0146" y="-500.4" font-family="Times,serif" font-size="14.00" fill="#000000">Memorial Hall</text>
</g>
<g id="clust13" class="cluster">
<title>cluster_10</title>
<polygon fill="#d3d3d3" stroke="#d3d3d3" points="292.0146,-672.4 292.0146,-774 434.0146,-774 434.0146,-672.4 292.0146,-672.4"/>
<text text-anchor="middle" x="363.0146" y="-757.4" font-family="Times,serif" font-size="14.00" fill="#000000">Lammont du Pont Lab</text>
</g>
<g id="clust14" class="cluster">
<title>cluster_11</title>
<polygon fill="#d3d3d3" stroke="#d3d3d3" points="314.0146,-158.4 314.0146,-260 424.0146,-260 424.0146,-158.4 314.0146,-158.4"/>
<text text-anchor="middle" x="369.0146" y="-243.4" font-family="Times,serif" font-size="14.00" fill="#000000">Brown Lab</text>
</g>
<g id="clust15" class="cluster">
<title>cluster_12</title>
<polygon fill="#d3d3d3" stroke="#d3d3d3" points="186.0146,-415.4 186.0146,-517 296.0146,-517 296.0146,-415.4 186.0146,-415.4"/>
<text text-anchor="middle" x="241.0146" y="-500.4" font-family="Times,serif" font-size="14.00" fill="#000000">Du Pont Hall</text>
</g>
<g id="clust16" class="cluster">
<title>cluster_13</title>
<polygon fill="#d3d3d3" stroke="#d3d3d3" points="186.0146,-158.4 186.0146,-260 296.0146,-260 296.0146,-158.4 186.0146,-158.4"/>
<text text-anchor="middle" x="241.0146" y="-243.4" font-family="Times,serif" font-size="14.00" fill="#000000">Wolf Hall</text>
</g>
<g id="clust17" class="cluster">
<title>cluster_19</title>
<polygon fill="#d3d3d3" stroke="#d3d3d3" points="324.0146,-1276.8 324.0146,-1378.4 434.0146,-1378.4 434.0146,-1276.8 324.0146,-1276.8"/>
<text text-anchor="middle" x="379.0146" y="-1361.8" font-family="Times,serif" font-size="14.00" fill="#000000">Sharp Lab</text>
</g>
<g id="clust18" class="cluster">
<title>cluster_morris</title>
<polygon fill="none" stroke="#000000" points="450.0146,-957.2 450.0146,-1099.6 576.0146,-1099.6 576.0146,-957.2 450.0146,-957.2"/>
<text text-anchor="middle" x="513.0146" y="-1083" font-family="Times,serif" font-size="14.00" fill="#000000">South Green</text>
</g>
<g id="clust19" class="cluster">
<title>cluster_9</title>
<polygon fill="#d3d3d3" stroke="#d3d3d3" points="458.0146,-965.2 458.0146,-1066.8 568.0146,-1066.8 568.0146,-965.2 458.0146,-965.2"/>
<text text-anchor="middle" x="513.0146" y="-1050.2" font-family="Times,serif" font-size="14.00" fill="#000000">Morris Library</text>
</g>
<g id="clust20" class="cluster">
<title>cluster_academy</title>
<polygon fill="none" stroke="#000000" points="450.0146,-8 450.0146,-924.4 694.0146,-924.4 694.0146,-8 450.0146,-8"/>
</g>
<g id="clust21" class="cluster">
<title>cluster_20</title>
<polygon fill="#d3d3d3" stroke="#d3d3d3" points="458.0146,-16 458.0146,-117.6 568.0146,-117.6 568.0146,-16 458.0146,-16"/>
<text text-anchor="middle" x="513.0146" y="-101" font-family="Times,serif" font-size="14.00" fill="#000000">Spencer Lab</text>
</g>
<g id="clust22" class="cluster">
<title>cluster_16</title>
<polygon fill="#d3d3d3" stroke="#d3d3d3" points="576.0146,-16 576.0146,-117.6 686.0146,-117.6 686.0146,-16 576.0146,-16"/>
<text text-anchor="middle" x="631.0146" y="-101" font-family="Times,serif" font-size="14.00" fill="#000000">ISE Lab</text>
</g>
<g id="clust23" class="cluster">
<title>cluster_14</title>
<polygon fill="#d3d3d3" stroke="#d3d3d3" points="458.0146,-814.8 458.0146,-916.4 571.0146,-916.4 571.0146,-814.8 458.0146,-814.8"/>
<text text-anchor="middle" x="514.5146" y="-899.8" font-family="Times,serif" font-size="14.00" fill="#000000">Alison Hall West</text>
</g>
<g id="clust24" class="cluster">
<title>cluster_15</title>
<polygon fill="#d3d3d3" stroke="#d3d3d3" points="458.0146,-551.8 458.0146,-653.4 568.0146,-653.4 568.0146,-551.8 458.0146,-551.8"/>
<text text-anchor="middle" x="513.0146" y="-636.8" font-family="Times,serif" font-size="14.00" fill="#000000">Alison Hall</text>
</g>
<g id="clust25" class="cluster">
<title>cluster_5</title>
<polygon fill="#d3d3d3" stroke="#d3d3d3" points="458.0146,-294.8 458.0146,-396.4 568.0146,-396.4 568.0146,-294.8 458.0146,-294.8"/>
<text text-anchor="middle" x="513.0146" y="-379.8" font-family="Times,serif" font-size="14.00" fill="#000000">Colburn Lab</text>
</g>
<!-- CISC210 -->
<g id="node1" class="node">
<title>CISC210</title>
<ellipse fill="#ffffff" stroke="#ffffff" cx="829.0146" cy="-1160.4" rx="46.9709" ry="18"/>
<text text-anchor="middle" x="829.0146" y="-1156.2" font-family="Times,serif" font-size="14.00" fill="#000000">CISC210</text>
</g>
<!-- CentralUDServer -->
<g id="node2" class="node">
<title>CentralUDServer</title>
<ellipse fill="#ffffff" stroke="#ffffff" cx="797.0146" cy="-840.8" rx="78.7066" ry="18"/>
<text text-anchor="middle" x="797.0146" y="-836.6" font-family="Times,serif" font-size="14.00" fill="#000000">CentralUDServer</text>
</g>
<!-- CISC210&#45;&#45;CentralUDServer -->
<g id="edge10" class="edge">
<title>CISC210--CentralUDServer</title>
<path fill="none" stroke="#000000" d="M827.2025,-1142.3012C821.5833,-1086.1801 804.4925,-915.4855 798.8465,-859.0964"/>
<text text-anchor="middle" x="825.5146" y="-987" font-family="Times,serif" font-size="14.00" fill="#000000">2</text>
</g>
<!-- CISC481 -->
<g id="node3" class="node">
<title>CISC481</title>
<ellipse fill="#ffffff" stroke="#ffffff" cx="772.0146" cy="-1761.8" rx="46.9709" ry="18"/>
<text text-anchor="middle" x="772.0146" y="-1757.6" font-family="Times,serif" font-size="14.00" fill="#000000">CISC481</text>
</g>
<!-- CISC481&#45;&#45;CentralUDServer -->
<g id="edge1" class="edge">
<title>CISC481--CentralUDServer</title>
<path fill="none" stroke="#000000" d="M763.3216,-1743.8614C750.4987,-1715.7034 728.0146,-1659.1017 728.0146,-1608.4 728.0146,-1608.4 728.0146,-1608.4 728.0146,-1427.6 728.0146,-1218.2614 721.2915,-1164.2718 752.0146,-957.2 753.6648,-946.0777 753.6345,-943.1239 757.0146,-932.4 765.3088,-906.0851 778.7304,-877.1228 787.7106,-858.9529"/>
<text text-anchor="middle" x="731.5146" y="-1298.6" font-family="Times,serif" font-size="14.00" fill="#000000">2</text>
</g>
<!-- CISC437 -->
<g id="node4" class="node">
<title>CISC437</title>
<ellipse fill="#ffffff" stroke="#ffffff" cx="803.0146" cy="-1472" rx="46.9709" ry="18"/>
<text text-anchor="middle" x="803.0146" y="-1467.8" font-family="Times,serif" font-size="14.00" fill="#000000">CISC437</text>
</g>
<!-- CISC481&#45;&#45;CISC437 -->
<g id="edge2" class="edge">
<title>CISC481--CISC437</title>
<path fill="none" stroke="#000000" d="M773.9538,-1743.6717C779.521,-1691.6276 795.5099,-1542.157 801.0762,-1490.1214"/>
<text text-anchor="middle" x="794.5146" y="-1604.2" font-family="Times,serif" font-size="14.00" fill="#000000">2</text>
</g>
<!-- CISC437&#45;&#45;CISC210 -->
<g id="edge4" class="edge">
<title>CISC437--CISC210</title>
<path fill="none" stroke="#000000" d="M804.5249,-1453.9002C809.1202,-1398.8274 822.8993,-1233.6891 827.5002,-1178.5497"/>
<text text-anchor="middle" x="822.5146" y="-1298.6" font-family="Times,serif" font-size="14.00" fill="#000000">2</text>
</g>
<!-- CISC437&#45;&#45;CentralUDServer -->
<g id="edge3" class="edge">
<title>CISC437--CentralUDServer</title>
<path fill="none" stroke="#000000" d="M794.7907,-1454.1568C781.5595,-1423.7687 757.0146,-1359.7251 757.0146,-1302.8 757.0146,-1302.8 757.0146,-1302.8 757.0146,-991.2 757.0146,-942.0258 777.2319,-886.7542 788.92,-858.9091"/>
<text text-anchor="middle" x="760.5146" y="-1156.2" font-family="Times,serif" font-size="14.00" fill="#000000">4</text>
</g>
<!-- CISC320 -->
<g id="node6" class="node">
<title>CISC320</title>
<ellipse fill="#ffffff" stroke="#ffffff" cx="963.0146" cy="-1608.4" rx="46.9709" ry="18"/>
<text text-anchor="middle" x="963.0146" y="-1604.2" font-family="Times,serif" font-size="14.00" fill="#000000">CISC320</text>
</g>
<!-- CISC437&#45;&#45;CISC320 -->
<g id="edge5" class="edge">
<title>CISC437--CISC320</title>
<path fill="none" stroke="#000000" d="M809.247,-1490.1774C817.7947,-1512.535 835.2164,-1550.2395 862.0146,-1572.4 878.7991,-1586.2797 901.3381,-1594.9921 920.8658,-1600.3612"/>
<text text-anchor="middle" x="865.5146" y="-1559.8" font-family="Times,serif" font-size="14.00" fill="#000000">9</text>
</g>
<!-- CISC484 -->
<g id="node5" class="node">
<title>CISC484</title>
<ellipse fill="#ffffff" stroke="#ffffff" cx="963.0146" cy="-1302.8" rx="46.9709" ry="18"/>
<text text-anchor="middle" x="963.0146" y="-1298.6" font-family="Times,serif" font-size="14.00" fill="#000000">CISC484</text>
</g>
<!-- CISC484&#45;&#45;CISC210 -->
<g id="edge8" class="edge">
<title>CISC484--CISC210</title>
<path fill="none" stroke="#000000" d="M946.8511,-1285.6232C921.0957,-1258.2533 871.0269,-1205.0459 845.2355,-1177.6377"/>
<text text-anchor="middle" x="930.0146" y="-1248.2" font-family="Times,serif" font-size="14.00" fill="#000000">13</text>
</g>
<!-- CISC220 -->
<g id="node14" class="node">
<title>CISC220</title>
<ellipse fill="#ffffff" stroke="#ffffff" cx="379.0146" cy="-1302.8" rx="46.9709" ry="18"/>
<text text-anchor="middle" x="379.0146" y="-1298.6" font-family="Times,serif" font-size="14.00" fill="#000000">CISC220</text>
</g>
<!-- CISC484&#45;&#45;CISC220 -->
<g id="edge9" class="edge">
<title>CISC484--CISC220</title>
<path fill="none" stroke="#000000" d="M947.0404,-1320.094C923.5074,-1344.1529 876.8871,-1386.6117 827.0146,-1403 670.0927,-1454.5652 473.6284,-1356.9676 404.4937,-1317.9267"/>
<text text-anchor="middle" x="743.0146" y="-1423.4" font-family="Times,serif" font-size="14.00" fill="#000000">14</text>
</g>
<!-- CISC320&#45;&#45;CISC210 -->
<g id="edge7" class="edge">
<title>CISC320--CISC210</title>
<path fill="none" stroke="#000000" d="M957.6448,-1590.4549C947.2766,-1555.8058 923.7793,-1477.277 904.0146,-1411.2 877.902,-1323.9007 846.6868,-1219.5051 834.3794,-1178.3429"/>
<text text-anchor="middle" x="918.0146" y="-1423.4" font-family="Times,serif" font-size="14.00" fill="#000000">11</text>
</g>
<!-- CISC320&#45;&#45;CISC484 -->
<g id="edge6" class="edge">
<title>CISC320--CISC484</title>
<path fill="none" stroke="#000000" d="M963.0146,-1590.1985C963.0146,-1535.8447 963.0146,-1375.1353 963.0146,-1320.9061"/>
<text text-anchor="middle" x="966.5146" y="-1467.8" font-family="Times,serif" font-size="14.00" fill="#000000">4</text>
</g>
<!-- CISC181 -->
<g id="node7" class="node">
<title>CISC181</title>
<ellipse fill="#ffffff" stroke="#ffffff" cx="187.0146" cy="-991.2" rx="46.9709" ry="18"/>
<text text-anchor="middle" x="187.0146" y="-987" font-family="Times,serif" font-size="14.00" fill="#000000">CISC181</text>
</g>
<!-- CISC181&#45;&#45;CentralUDServer -->
<g id="edge18" class="edge">
<title>CISC181--CentralUDServer</title>
<path fill="none" stroke="#000000" d="M228.377,-982.4482C288.4286,-969.9771 403.3673,-946.9912 502.0146,-932.4 534.302,-927.6243 543.2704,-931.9887 575.0146,-924.4 643.3088,-908.0738 719.1071,-876.4116 762.12,-857.0833"/>
<text text-anchor="middle" x="505.5146" y="-936.6" font-family="Times,serif" font-size="14.00" fill="#000000">8</text>
</g>
<!-- CISC108 -->
<g id="node8" class="node">
<title>CISC108</title>
<ellipse fill="#ffffff" stroke="#ffffff" cx="229.0146" cy="-698.4" rx="46.9709" ry="18"/>
<text text-anchor="middle" x="229.0146" y="-694.2" font-family="Times,serif" font-size="14.00" fill="#000000">CISC108</text>
</g>
<!-- CISC181&#45;&#45;CISC108 -->
<g id="edge15" class="edge">
<title>CISC181--CISC108</title>
<path fill="none" stroke="#000000" d="M189.6419,-972.884C197.1845,-920.3011 218.8469,-769.2833 226.3883,-716.709"/>
<text text-anchor="middle" x="216.5146" y="-836.6" font-family="Times,serif" font-size="14.00" fill="#000000">2</text>
</g>
<!-- CISC355 -->
<g id="node9" class="node">
<title>CISC355</title>
<ellipse fill="#ffffff" stroke="#ffffff" cx="123.0146" cy="-441.4" rx="46.9709" ry="18"/>
<text text-anchor="middle" x="123.0146" y="-437.2" font-family="Times,serif" font-size="14.00" fill="#000000">CISC355</text>
</g>
<!-- CISC181&#45;&#45;CISC355 -->
<g id="edge16" class="edge">
<title>CISC181--CISC355</title>
<path fill="none" stroke="#000000" d="M170.8254,-974.2572C147.4492,-947.9356 107.0146,-894.6268 107.0146,-840.8 107.0146,-840.8 107.0146,-840.8 107.0146,-577.8 107.0146,-535.1212 114.8371,-485.4391 119.5429,-459.4134"/>
<text text-anchor="middle" x="110.5146" y="-694.2" font-family="Times,serif" font-size="14.00" fill="#000000">5</text>
</g>
<!-- CISC304 -->
<g id="node12" class="node">
<title>CISC304</title>
<ellipse fill="#ffffff" stroke="#ffffff" cx="241.0146" cy="-441.4" rx="46.9709" ry="18"/>
<text text-anchor="middle" x="241.0146" y="-437.2" font-family="Times,serif" font-size="14.00" fill="#000000">CISC304</text>
</g>
<!-- CISC181&#45;&#45;CISC304 -->
<g id="edge17" class="edge">
<title>CISC181--CISC304</title>
<path fill="none" stroke="#000000" d="M181.3724,-973.33C166.7893,-924.503 130.7001,-784.9761 156.0146,-672.4 158.0646,-663.2837 161.4337,-662.0305 165.0146,-653.4 194.3087,-582.7972 223.1834,-496.3919 235.1952,-459.4951"/>
<text text-anchor="middle" x="163.0146" y="-694.2" font-family="Times,serif" font-size="14.00" fill="#000000">10</text>
</g>
<!-- CISC108&#45;&#45;CentralUDServer -->
<g id="edge19" class="edge">
<title>CISC108--CentralUDServer</title>
<path fill="none" stroke="#000000" d="M237.1585,-716.1749C246.5551,-734.3449 263.8732,-761.6046 288.0146,-774 307.5028,-784.0062 463.2485,-779.5204 485.0146,-782 575.7892,-792.3411 679.81,-813.9406 741.8709,-827.8847"/>
<text text-anchor="middle" x="601.5146" y="-786.2" font-family="Times,serif" font-size="14.00" fill="#000000">8</text>
</g>
<!-- CISC108&#45;&#45;CISC355 -->
<g id="edge22" class="edge">
<title>CISC108--CISC355</title>
<path fill="none" stroke="#000000" d="M221.5609,-680.3283C202.0984,-633.1409 149.9134,-506.6168 130.4601,-459.4518"/>
<text text-anchor="middle" x="214.5146" y="-573.6" font-family="Times,serif" font-size="14.00" fill="#000000">4</text>
</g>
<!-- CISC303 -->
<g id="node11" class="node">
<title>CISC303</title>
<ellipse fill="#ffffff" stroke="#ffffff" cx="369.0146" cy="-184.4" rx="46.9709" ry="18"/>
<text text-anchor="middle" x="369.0146" y="-180.2" font-family="Times,serif" font-size="14.00" fill="#000000">CISC303</text>
</g>
<!-- CISC108&#45;&#45;CISC303 -->
<g id="edge21" class="edge">
<title>CISC108--CISC303</title>
<path fill="none" stroke="#000000" d="M252.9871,-682.775C281.1301,-662.3257 324.0146,-623.6437 324.0146,-577.8 324.0146,-577.8 324.0146,-577.8 324.0146,-320.8 324.0146,-276.4139 345.7703,-227.8084 359.0277,-202.3099"/>
<text text-anchor="middle" x="331.0146" y="-437.2" font-family="Times,serif" font-size="14.00" fill="#000000">10</text>
</g>
<!-- CISC108&#45;&#45;CISC304 -->
<g id="edge20" class="edge">
<title>CISC108--CISC304</title>
<path fill="none" stroke="#000000" d="M229.8584,-680.3283C232.0617,-633.1409 237.9695,-506.6168 240.1717,-459.4518"/>
<text text-anchor="middle" x="243.0146" y="-573.6" font-family="Times,serif" font-size="14.00" fill="#000000">10</text>
</g>
<!-- CISC275 -->
<g id="node10" class="node">
<title>CISC275</title>
<ellipse fill="#ffffff" stroke="#ffffff" cx="379.0146" cy="-698.4" rx="46.9709" ry="18"/>
<text text-anchor="middle" x="379.0146" y="-694.2" font-family="Times,serif" font-size="14.00" fill="#000000">CISC275</text>
</g>
<!-- CISC275&#45;&#45;CISC355 -->
<g id="edge26" class="edge">
<title>CISC275--CISC355</title>
<path fill="none" stroke="#000000" d="M367.4568,-680.5215C347.4002,-650.6288 303.5219,-590.0243 254.0146,-551.8 225.8823,-530.0792 209.6696,-539.3254 182.0146,-517 161.6761,-500.5811 144.0933,-475.8668 133.5358,-459.2073"/>
<text text-anchor="middle" x="351.5146" y="-573.6" font-family="Times,serif" font-size="14.00" fill="#000000">2</text>
</g>
<!-- CISC275&#45;&#45;CISC303 -->
<g id="edge27" class="edge">
<title>CISC275--CISC303</title>
<path fill="none" stroke="#000000" d="M380.9921,-680.0366C383.3612,-656.4149 387.0146,-614.1015 387.0146,-577.8 387.0146,-577.8 387.0146,-577.8 387.0146,-320.8 387.0146,-278.0443 378.2143,-228.3929 372.9203,-202.3925"/>
<text text-anchor="middle" x="390.5146" y="-437.2" font-family="Times,serif" font-size="14.00" fill="#000000">1</text>
</g>
<!-- CISC498 -->
<g id="node18" class="node">
<title>CISC498</title>
<ellipse fill="#ffffff" stroke="#ffffff" cx="513.0146" cy="-840.8" rx="46.9709" ry="18"/>
<text text-anchor="middle" x="513.0146" y="-836.6" font-family="Times,serif" font-size="14.00" fill="#000000">CISC498</text>
</g>
<!-- CISC275&#45;&#45;CISC498 -->
<g id="edge29" class="edge">
<title>CISC275--CISC498</title>
<path fill="none" stroke="#000000" d="M395.2355,-715.6377C421.0269,-743.0459 471.0957,-796.2533 496.8511,-823.6232"/>
<text text-anchor="middle" x="477.5146" y="-786.2" font-family="Times,serif" font-size="14.00" fill="#000000">2</text>
</g>
<!-- CISC260 -->
<g id="node20" class="node">
<title>CISC260</title>
<ellipse fill="#ffffff" stroke="#ffffff" cx="513.0146" cy="-320.8" rx="46.9709" ry="18"/>
<text text-anchor="middle" x="513.0146" y="-316.6" font-family="Times,serif" font-size="14.00" fill="#000000">CISC260</text>
</g>
<!-- CISC275&#45;&#45;CISC260 -->
<g id="edge28" class="edge">
<title>CISC275--CISC260</title>
<path fill="none" stroke="#000000" d="M385.5164,-680.4625C387.5996,-674.6975 389.9111,-668.2815 392.0146,-662.4 436.1919,-538.8824 488.6719,-389.9685 506.626,-338.9599"/>
<text text-anchor="middle" x="444.5146" y="-529.2" font-family="Times,serif" font-size="14.00" fill="#000000">3</text>
</g>
<!-- CISC304&#45;&#45;CISC303 -->
<g id="edge38" class="edge">
<title>CISC304--CISC303</title>
<path fill="none" stroke="#000000" d="M248.2129,-423.6037C261.2429,-391.827 290.0811,-323.4596 319.0146,-268 331.2175,-244.6096 347.115,-218.6824 357.6729,-201.9959"/>
<text text-anchor="middle" x="309.5146" y="-316.6" font-family="Times,serif" font-size="14.00" fill="#000000">1</text>
</g>
<!-- CISC483 -->
<g id="node13" class="node">
<title>CISC483</title>
<ellipse fill="#ffffff" stroke="#ffffff" cx="241.0146" cy="-184.4" rx="46.9709" ry="18"/>
<text text-anchor="middle" x="241.0146" y="-180.2" font-family="Times,serif" font-size="14.00" fill="#000000">CISC483</text>
</g>
<!-- CISC304&#45;&#45;CISC483 -->
<g id="edge39" class="edge">
<title>CISC304--CISC483</title>
<path fill="none" stroke="#000000" d="M241.0146,-423.3283C241.0146,-376.1409 241.0146,-249.6168 241.0146,-202.4518"/>
<text text-anchor="middle" x="244.5146" y="-316.6" font-family="Times,serif" font-size="14.00" fill="#000000">3</text>
</g>
<!-- CISC361 -->
<g id="node16" class="node">
<title>CISC361</title>
<ellipse fill="#ffffff" stroke="#ffffff" cx="513.0146" cy="-42" rx="46.9709" ry="18"/>
<text text-anchor="middle" x="513.0146" y="-37.8" font-family="Times,serif" font-size="14.00" fill="#000000">CISC361</text>
</g>
<!-- CISC304&#45;&#45;CISC361 -->
<g id="edge37" class="edge">
<title>CISC304--CISC361</title>
<path fill="none" stroke="#000000" d="M214.691,-426.3195C156.9968,-392.3097 25.9976,-309.3864 45.0146,-268 120.5484,-103.6169 364.8401,-58.0945 467.2133,-46.0824"/>
<text text-anchor="middle" x="48.5146" y="-272.2" font-family="Times,serif" font-size="14.00" fill="#000000">2</text>
</g>
<!-- CISC220&#45;&#45;CISC210 -->
<g id="edge11" class="edge">
<title>CISC220--CISC210</title>
<path fill="none" stroke="#000000" d="M425.2973,-1298.9864C515.3991,-1290.8992 710.566,-1269.9385 768.0146,-1236 791.3922,-1222.1894 809.4921,-1195.8484 819.7062,-1178.2003"/>
<text text-anchor="middle" x="748.5146" y="-1248.2" font-family="Times,serif" font-size="14.00" fill="#000000">8</text>
</g>
<!-- CISC220&#45;&#45;CentralUDServer -->
<g id="edge12" class="edge">
<title>CISC220--CentralUDServer</title>
<path fill="none" stroke="#000000" d="M395.5865,-1285.9552C429.3561,-1251.499 508.3278,-1170.2515 572.0146,-1099.6 637.4848,-1026.9701 650.6229,-1005.9878 715.0146,-932.4 737.6438,-906.539 764.2426,-876.9764 780.8676,-858.5967"/>
<text text-anchor="middle" x="572.0146" y="-1111.8" font-family="Times,serif" font-size="14.00" fill="#000000">10</text>
</g>
<!-- CISC220&#45;&#45;CISC181 -->
<g id="edge13" class="edge">
<title>CISC220--CISC181</title>
<path fill="none" stroke="#000000" d="M368.1417,-1285.1542C334.427,-1230.438 231.882,-1064.0161 198.0062,-1009.0385"/>
<text text-anchor="middle" x="341.5146" y="-1156.2" font-family="Times,serif" font-size="14.00" fill="#000000">3</text>
</g>
<!-- CISC220&#45;&#45;CISC483 -->
<g id="edge14" class="edge">
<title>CISC220--CISC483</title>
<path fill="none" stroke="#000000" d="M338.2331,-1293.8105C251.5874,-1273.5309 57.0146,-1221.2197 57.0146,-1160.4 57.0146,-1160.4 57.0146,-1160.4 57.0146,-320.8 57.0146,-301.2657 165.423,-231.356 215.816,-199.9141"/>
<text text-anchor="middle" x="64.0146" y="-694.2" font-family="Times,serif" font-size="14.00" fill="#000000">10</text>
</g>
<!-- CISC499 -->
<g id="node15" class="node">
<title>CISC499</title>
<ellipse fill="#ffffff" stroke="#ffffff" cx="513.0146" cy="-991.2" rx="46.9709" ry="18"/>
<text text-anchor="middle" x="513.0146" y="-987" font-family="Times,serif" font-size="14.00" fill="#000000">CISC499</text>
</g>
<!-- CISC499&#45;&#45;CISC355 -->
<g id="edge23" class="edge">
<title>CISC499--CISC355</title>
<path fill="none" stroke="#000000" d="M474.9639,-980.5814C451.7088,-973.3327 421.7783,-962.6175 397.0146,-949.2 304.5423,-899.0965 304.3465,-849.0096 208.0146,-806.8 133.5334,-774.1647 80.1063,-836.4417 28.0146,-774 -53.5404,-676.2409 65.1302,-512.3012 108.3325,-458.8349"/>
<text text-anchor="middle" x="31.5146" y="-694.2" font-family="Times,serif" font-size="14.00" fill="#000000">3</text>
</g>
<!-- CISC499&#45;&#45;CISC275 -->
<g id="edge24" class="edge">
<title>CISC499--CISC275</title>
<path fill="none" stroke="#000000" d="M469.8486,-983.8997C448.8562,-978.0722 425.1619,-967.6734 411.0146,-949.2 356.5706,-878.1073 368.5764,-761.0581 375.7001,-716.4402"/>
<text text-anchor="middle" x="399.5146" y="-836.6" font-family="Times,serif" font-size="14.00" fill="#000000">4</text>
</g>
<!-- CISC499&#45;&#45;CISC498 -->
<g id="edge25" class="edge">
<title>CISC499--CISC498</title>
<path fill="none" stroke="#000000" d="M513.0146,-973.0582C513.0146,-944.1507 513.0146,-887.9541 513.0146,-859.0061"/>
<text text-anchor="middle" x="516.5146" y="-936.6" font-family="Times,serif" font-size="14.00" fill="#000000">6</text>
</g>
<!-- CISC361&#45;&#45;CISC483 -->
<g id="edge40" class="edge">
<title>CISC361--CISC483</title>
<path fill="none" stroke="#000000" d="M485.0201,-56.6559C432.7672,-84.0119 320.9733,-142.5393 268.8451,-169.8299"/>
<text text-anchor="middle" x="356.5146" y="-129.8" font-family="Times,serif" font-size="14.00" fill="#000000">5</text>
</g>
<!-- CISC360 -->
<g id="node17" class="node">
<title>CISC360</title>
<ellipse fill="#ffffff" stroke="#ffffff" cx="631.0146" cy="-42" rx="46.9709" ry="18"/>
<text text-anchor="middle" x="631.0146" y="-37.8" font-family="Times,serif" font-size="14.00" fill="#000000">CISC360</text>
</g>
<!-- CISC372 -->
<g id="node19" class="node">
<title>CISC372</title>
<ellipse fill="#ffffff" stroke="#ffffff" cx="513.0146" cy="-577.8" rx="46.9709" ry="18"/>
<text text-anchor="middle" x="513.0146" y="-573.6" font-family="Times,serif" font-size="14.00" fill="#000000">CISC372</text>
</g>
<!-- CISC498&#45;&#45;CISC372 -->
<g id="edge30" class="edge">
<title>CISC498--CISC372</title>
<path fill="none" stroke="#000000" d="M513.0146,-822.7229C513.0146,-774.677 513.0146,-644.1939 513.0146,-596.0036"/>
<text text-anchor="middle" x="516.5146" y="-694.2" font-family="Times,serif" font-size="14.00" fill="#000000">2</text>
</g>
<!-- CISC498&#45;&#45;CISC260 -->
<g id="edge31" class="edge">
<title>CISC498--CISC260</title>
<path fill="none" stroke="#000000" d="M535.3641,-824.7244C565.6572,-800.875 616.0146,-753.0156 616.0146,-698.4 616.0146,-698.4 616.0146,-698.4 616.0146,-441.4 616.0146,-414.0423 591.9493,-417.059 574.0146,-396.4 557.0991,-376.915 538.6142,-353.7169 526.4778,-338.2039"/>
<text text-anchor="middle" x="619.5146" y="-573.6" font-family="Times,serif" font-size="14.00" fill="#000000">6</text>
</g>
<!-- CISC372&#45;&#45;CISC360 -->
<g id="edge32" class="edge">
<title>CISC372--CISC360</title>
<path fill="none" stroke="#000000" d="M531.8486,-560.866C556.3371,-536.8872 596.0146,-490.4647 596.0146,-441.4 596.0146,-441.4 596.0146,-441.4 596.0146,-184.4 596.0146,-138.5756 613.3181,-86.7914 623.592,-60.0832"/>
<text text-anchor="middle" x="599.5146" y="-316.6" font-family="Times,serif" font-size="14.00" fill="#000000">8</text>
</g>
<!-- CISC372&#45;&#45;CISC260 -->
<g id="edge33" class="edge">
<title>CISC372--CISC260</title>
<path fill="none" stroke="#000000" d="M513.0146,-559.7283C513.0146,-512.5409 513.0146,-386.0168 513.0146,-338.8518"/>
<text text-anchor="middle" x="516.5146" y="-437.2" font-family="Times,serif" font-size="14.00" fill="#000000">4</text>
</g>
<!-- CISC260&#45;&#45;CISC303 -->
<g id="edge35" class="edge">
<title>CISC260--CISC303</title>
<path fill="none" stroke="#000000" d="M495.3574,-304.0747C467.7199,-277.8958 414.5424,-227.525 386.8163,-201.2621"/>
<text text-anchor="middle" x="478.5146" y="-272.2" font-family="Times,serif" font-size="14.00" fill="#000000">2</text>
</g>
<!-- CISC260&#45;&#45;CISC361 -->
<g id="edge36" class="edge">
<title>CISC260--CISC361</title>
<path fill="none" stroke="#000000" d="M513.0146,-302.5072C513.0146,-251.9903 513.0146,-110.9574 513.0146,-60.3602"/>
<text text-anchor="middle" x="516.5146" y="-180.2" font-family="Times,serif" font-size="14.00" fill="#000000">1</text>
</g>
<!-- CISC260&#45;&#45;CISC360 -->
<g id="edge34" class="edge">
<title>CISC260--CISC360</title>
<path fill="none" stroke="#000000" d="M519.7225,-302.8732C532.7608,-268.2957 562.7315,-190.1059 591.0146,-125.6 601.0936,-102.6126 613.7423,-76.5973 622.0862,-59.7804"/>
<text text-anchor="middle" x="583.5146" y="-180.2" font-family="Times,serif" font-size="14.00" fill="#000000">6</text>
</g>
</g>
</svg>