<?xml version="1.0" encoding="UTF-8" standalone="no"?><!DOCTYPE svg PUBLIC "-//W3C//DTD SVG 1.1//EN" "http://www.w3.org/Graphics/SVG/1.1/DTD/svg11.dtd"><!-- Generated by graphviz version 2.40.1 (20161225.0304)
 --><!-- Title: G Pages: 1 --><svg xmlns="http://www.w3.org/2000/svg" xmlns:xlink="http://www.w3.org/1999/xlink" width="804pt" height="1602pt" viewBox="0.00 0.00 804.00 1602.20">
<g id="graph0" class="graph" transform="scale(1 1) rotate(0) translate(4 1598.2)">
<title>G</title>
<polygon fill="#ffffff" stroke="transparent" points="-4,4 -4,-1598.2 800,-1598.2 800,4 -4,4"/>
<g id="clust1" class="cluster">
<title>cluster_quad</title>
<polygon fill="none" stroke="#000000" points="292,-308 292,-814.8 536,-814.8 536,-308 292,-308"/>
<text text-anchor="middle" x="414" y="-798.2" font-family="Times,serif" font-size="14.00" fill="#000000">The Quad</text>
</g>
<g id="clust2" class="cluster">
<title>cluster_17</title>
<polygon fill="#d3d3d3" stroke="#d3d3d3" points="300,-513.6 300,-590.4 410,-590.4 410,-513.6 300,-513.6"/>
<text text-anchor="middle" x="355" y="-573.8" font-family="Times,serif" font-size="14.00" fill="#000000">Kirkbride Hall</text>
</g>
<g id="clust3" class="cluster">
<title>cluster_0</title>
<polygon fill="#d3d3d3" stroke="#d3d3d3" points="300,-705.2 300,-782 474,-782 474,-705.2 300,-705.2"/>
<text text-anchor="middle" x="387" y="-765.4" font-family="Times,serif" font-size="14.00" fill="#000000">Smith Hall</text>
</g>
<g id="clust4" class="cluster">
<title>cluster_1</title>
<polygon fill="#d3d3d3" stroke="#d3d3d3" points="418,-513.6 418,-590.4 528,-590.4 528,-513.6 418,-513.6"/>
<text text-anchor="middle" x="473" y="-573.8" font-family="Times,serif" font-size="14.00" fill="#000000">Purnell Hall</text>
</g>
<g id="clust5" class="cluster">
<title>cluster_2</title>
<polygon fill="#d3d3d3" stroke="#d3d3d3" points="418,-316 418,-392.8 528,-392.8 528,-316 418,-316"/>
<text text-anchor="middle" x="473" y="-376.2" font-family="Times,serif" font-size="14.00" fill="#000000">Ewing Hall</text>
</g>
<g id="clust6" class="cluster">
<title>cluster_north</title>
<polygon fill="none" stroke="#000000" points="390,-8 390,-275.2 556,-275.2 556,-8 390,-8"/>
<text text-anchor="middle" x="473" y="-258.6" font-family="Times,serif" font-size="14.00" fill="#000000">Main St. / N. College Ave.</text>
</g>
<g id="clust7" class="cluster">
<title>cluster_4</title>
<polygon fill="#d3d3d3" stroke="#d3d3d3" points="418,-16 418,-92.8 528,-92.8 528,-16 418,-16"/>
<text text-anchor="middle" x="473" y="-76.2" font-family="Times,serif" font-size="14.00" fill="#000000">McDowell Hall</text>
</g>
<g id="clust8" class="cluster">
<title>cluster_3</title>
<polygon fill="#d3d3d3" stroke="#d3d3d3" points="418,-165.6 418,-242.4 528,-242.4 528,-165.6 418,-165.6"/>
<text text-anchor="middle" x="473" y="-225.8" font-family="Times,serif" font-size="14.00" fill="#000000">Willard Hall</text>
</g>
<g id="clust9" class="cluster">
<title>cluster_main_green</title>
<polygon fill="none" stroke="#000000" points="8,-409.8 8,-1586.2 284,-1586.2 284,-409.8 8,-409.8"/>
<text text-anchor="middle" x="146" y="-1569.6" font-family="Times,serif" font-size="14.00" fill="#000000">Main Green</text>
</g>
<g id="clust10" class="cluster">
<title>cluster_6</title>
<polygon fill="#d3d3d3" stroke="#d3d3d3" points="136,-609.4 136,-686.2 246,-686.2 246,-609.4 136,-609.4"/>
<text text-anchor="middle" x="191" y="-669.6" font-family="Times,serif" font-size="14.00" fill="#000000">Gore Hall</text>
</g>
<g id="clust11" class="cluster">
<title>cluster_7</title>
<polygon fill="#d3d3d3" stroke="#d3d3d3" points="136,-849.6 136,-926.4 246,-926.4 246,-849.6 136,-849.6"/>
<text text-anchor="middle" x="191" y="-909.8" font-family="Times,serif" font-size="14.00" fill="#000000">Mitchell Hall</text>
</g>
<g id="clust12" class="cluster">
<title>cluster_8</title>
<polygon fill="#d3d3d3" stroke="#d3d3d3" points="48,-1095.8 48,-1172.6 158,-1172.6 158,-1095.8 48,-1095.8"/>
<text text-anchor="middle" x="103" y="-1156" font-family="Times,serif" font-size="14.00" fill="#000000">Memorial Hall</text>
</g>
<g id="clust13" class="cluster">
<title>cluster_10</title>
<polygon fill="#d3d3d3" stroke="#d3d3d3" points="16,-1311.2 16,-1388 158,-1388 158,-1311.2 16,-1311.2"/>
<text text-anchor="middle" x="87" y="-1371.4" font-family="Times,serif" font-size="14.00" fill="#000000">Lammont du Pont Lab</text>
</g>
<g id="clust14" class="cluster">
<title>cluster_11</title>
<polygon fill="#d3d3d3" stroke="#d3d3d3" points="166,-1476.6 166,-1553.4 276,-1553.4 276,-1476.6 166,-1476.6"/>
<text text-anchor="middle" x="221" y="-1536.8" font-family="Times,serif" font-size="14.00" fill="#000000">Brown Lab</text>
</g>
<g id="clust15" class="cluster">
<title>cluster_12</title>
<polygon fill="#d3d3d3" stroke="#d3d3d3" points="166,-1311.2 166,-1388 276,-1388 276,-1311.2 166,-1311.2"/>
<text text-anchor="middle" x="221" y="-1371.4" font-family="Times,serif" font-size="14.00" fill="#000000">Du Pont Hall</text>
</g>
<g id="clust16" class="cluster">
<title>cluster_13</title>
<polygon fill="#d3d3d3" stroke="#d3d3d3" points="166,-1095.8 166,-1172.6 276,-1172.6 276,-1095.8 166,-1095.8"/>
<text text-anchor="middle" x="221" y="-1156" font-family="Times,serif" font-size="14.00" fill="#000000">Wolf Hall</text>
</g>
<g id="clust17" class="cluster">
<title>cluster_19</title>
<polygon fill="#d3d3d3" stroke="#d3d3d3" points="136,-417.8 136,-494.6 246,-494.6 246,-417.8 136,-417.8"/>
<text text-anchor="middle" x="191" y="-478" font-family="Times,serif" font-size="14.00" fill="#000000">Sharp Lab</text>
</g>
<g id="clust18" class="cluster">
<title>cluster_morris</title>
<polygon fill="none" stroke="#000000" points="292,-943.4 292,-1061 418,-1061 418,-943.4 292,-943.4"/>
<text text-anchor="middle" x="355" y="-1044.4" font-family="Times,serif" font-size="14.00" fill="#000000">South Green</text>
</g>
<g id="clust19" class="cluster">
<title>cluster_9</title>
<polygon fill="#d3d3d3" stroke="#d3d3d3" points="300,-951.4 300,-1028.2 410,-1028.2 410,-951.4 300,-951.4"/>
<text text-anchor="middle" x="355" y="-1011.6" font-family="Times,serif" font-size="14.00" fill="#000000">Morris Library</text>
</g>
<g id="clust20" class="cluster">
<title>cluster_academy</title>
<polygon fill="none" stroke="#000000" points="426,-943.4 426,-1276.4 788,-1276.4 788,-943.4 426,-943.4"/>
</g>
<g id="clust21" class="cluster">
<title>cluster_20</title>
<polygon fill="#d3d3d3" stroke="#d3d3d3" points="670,-951.4 670,-1028.2 780,-1028.2 780,-951.4 670,-951.4"/>
<text text-anchor="middle" x="725" y="-1011.6" font-family="Times,serif" font-size="14.00" fill="#000000">Spencer Lab</text>
</g>
<g id="clust22" class="cluster">
<title>cluster_16</title>
<polygon fill="#d3d3d3" stroke="#d3d3d3" points="552,-951.4 552,-1028.2 662,-1028.2 662,-951.4 552,-951.4"/>
<text text-anchor="middle" x="607" y="-1011.6" font-family="Times,serif" font-size="14.00" fill="#000000">ISE Lab</text>
</g>
<g id="clust23" class="cluster">
<title>cluster_14</title>
<polygon fill="#d3d3d3" stroke="#d3d3d3" points="434,-1191.6 434,-1268.4 547,-1268.4 547,-1191.6 434,-1191.6"/>
<text text-anchor="middle" x="490.5" y="-1251.8" font-family="Times,serif" font-size="14.00" fill="#000000">Alison Hall West</text>
</g>
<g id="clust24" class="cluster">
<title>cluster_15</title>
<polygon fill="#d3d3d3" stroke="#d3d3d3" points="434,-951.4 434,-1028.2 544,-1028.2 544,-951.4 434,-951.4"/>
<text text-anchor="middle" x="489" y="-1011.6" font-family="Times,serif" font-size="14.00" fill="#000000">Alison Hall</text>
</g>
<g id="clust25" class="cluster">
<title>cluster_5</title>
<polygon fill="#d3d3d3" stroke="#d3d3d3" points="555,-1191.6 555,-1268.4 665,-1268.4 665,-1191.6 555,-1191.6"/>
<text text-anchor="middle" x="610" y="-1251.8" font-family="Times,serif" font-size="14.00" fill="#000000">Colburn Lab</text>
</g>
<!-- CISC210 -->
<g id="node1" class="node">
<title>CISC210</title>
<ellipse fill="#ffffff" stroke="#ffffff" cx="355" cy="-539.6" rx="46.9709" ry="18"/>
<text text-anchor="middle" x="355" y="-535.4" font-family="Times,serif" font-size="14.00" fill="#000000">CISC210</text>
</g>
<!-- CentralUDServer -->
<g id="node2" class="node">
<title>CentralUDServer</title>
<ellipse fill="#ffffff" stroke="#ffffff" cx="387" cy="-731.2" rx="78.7066" ry="18"/>
<text text-anchor="middle" x="387" y="-727" font-family="Times,serif" font-size="14.00" fill="#000000">CentralUDServer</text>
</g>
<!-- CentralUDServer&#45;&#45;CISC210 -->
<g id="edge18" class="edge">
<title>CentralUDServer--CISC210</title>
<path fill="none" stroke="#000000" d="M383.9895,-713.1747C377.8906,-676.6574 364.1375,-594.3109 358.0258,-557.7169"/>
<text text-anchor="middle" x="382.5" y="-631.2" font-family="Times,serif" font-size="14.00" fill="#000000">2</text>
</g>
<!-- CISC481 -->
<g id="node3" class="node">
<title>CISC481</title>
<ellipse fill="#ffffff" stroke="#ffffff" cx="473" cy="-539.6" rx="46.9709" ry="18"/>
<text text-anchor="middle" x="473" y="-535.4" font-family="Times,serif" font-size="14.00" fill="#000000">CISC481</text>
</g>
<!-- CentralUDServer&#45;&#45;CISC481 -->
<g id="edge19" class="edge">
<title>CentralUDServer--CISC481</title>
<path fill="none" stroke="#000000" d="M395.0907,-713.1747C411.5234,-676.5642 448.6316,-593.8905 464.9935,-557.4378"/>
<text text-anchor="middle" x="444.5" y="-631.2" font-family="Times,serif" font-size="14.00" fill="#000000">2</text>
</g>
<!-- CISC437 -->
<g id="node4" class="node">
<title>CISC437</title>
<ellipse fill="#ffffff" stroke="#ffffff" cx="473" cy="-342" rx="46.9709" ry="18"/>
<text text-anchor="middle" x="473" y="-337.8" font-family="Times,serif" font-size="14.00" fill="#000000">CISC437</text>
</g>
<!-- CISC481&#45;&#45;CISC437 -->
<g id="edge16" class="edge">
<title>CISC481--CISC437</title>
<path fill="none" stroke="#000000" d="M473,-521.3645C473,-483.7208 473,-397.7974 473,-360.1915"/>
<text text-anchor="middle" x="476.5" y="-439.6" font-family="Times,serif" font-size="14.00" fill="#000000">2</text>
</g>
<!-- CISC320 -->
<g id="node6" class="node">
<title>CISC320</title>
<ellipse fill="#ffffff" stroke="#ffffff" cx="473" cy="-191.6" rx="46.9709" ry="18"/>
<text text-anchor="middle" x="473" y="-187.4" font-family="Times,serif" font-size="14.00" fill="#000000">CISC320</text>
</g>
<!-- CISC437&#45;&#45;CISC320 -->
<g id="edge15" class="edge">
<title>CISC437--CISC320</title>
<path fill="none" stroke="#000000" d="M473,-323.8582C473,-294.9507 473,-238.7541 473,-209.8061"/>
<text text-anchor="middle" x="476.5" y="-287.4" font-family="Times,serif" font-size="14.00" fill="#000000">9</text>
</g>
<!-- CISC484 -->
<g id="node5" class="node">
<title>CISC484</title>
<ellipse fill="#ffffff" stroke="#ffffff" cx="473" cy="-42" rx="46.9709" ry="18"/>
<text text-anchor="middle" x="473" y="-37.8" font-family="Times,serif" font-size="14.00" fill="#000000">CISC484</text>
</g>
<!-- CISC320&#45;&#45;CISC484 -->
<g id="edge12" class="edge">
<title>CISC320--CISC484</title>
<path fill="none" stroke="#000000" d="M473,-173.5547C473,-144.8009 473,-88.9033 473,-60.1093"/>
<text text-anchor="middle" x="476.5" y="-124" font-family="Times,serif" font-size="14.00" fill="#000000">4</text>
</g>
<!-- CISC181 -->
<g id="node7" class="node">
<title>CISC181</title>
<ellipse fill="#ffffff" stroke="#ffffff" cx="191" cy="-635.4" rx="46.9709" ry="18"/>
<text text-anchor="middle" x="191" y="-631.2" font-family="Times,serif" font-size="14.00" fill="#000000">CISC181</text>
</g>
<!-- CISC220 -->
<g id="node14" class="node">
<title>CISC220</title>
<ellipse fill="#ffffff" stroke="#ffffff" cx="191" cy="-443.8" rx="46.9709" ry="18"/>
<text text-anchor="middle" x="191" y="-439.6" font-family="Times,serif" font-size="14.00" fill="#000000">CISC220</text>
</g>
<!-- CISC181&#45;&#45;CISC220 -->
<g id="edge3" class="edge">
<title>CISC181--CISC220</title>
<path fill="none" stroke="#000000" d="M191,-617.3747C191,-580.8574 191,-498.5109 191,-461.9169"/>
<text text-anchor="middle" x="194.5" y="-535.4" font-family="Times,serif" font-size="14.00" fill="#000000">3</text>
</g>
<!-- CISC108 -->
<g id="node8" class="node">
<title>CISC108</title>
<ellipse fill="#ffffff" stroke="#ffffff" cx="191" cy="-875.6" rx="46.9709" ry="18"/>
<text text-anchor="middle" x="191" y="-871.4" font-family="Times,serif" font-size="14.00" fill="#000000">CISC108</text>
</g>
<!-- CISC108&#45;&#45;CentralUDServer -->
<g id="edge2" class="edge">
<title>CISC108--CentralUDServer</title>
<path fill="none" stroke="#000000" d="M212.7243,-859.595C249.9012,-832.2055 325.4044,-776.5796 363.6602,-748.3952"/>
<text text-anchor="middle" x="262.5" y="-827" font-family="Times,serif" font-size="14.00" fill="#000000">8</text>
</g>
<!-- CISC108&#45;&#45;CISC181 -->
<g id="edge1" class="edge">
<title>CISC108--CISC181</title>
<path fill="none" stroke="#000000" d="M191,-857.546C191,-813.0315 191,-698.3971 191,-653.6635"/>
<text text-anchor="middle" x="194.5" y="-727" font-family="Times,serif" font-size="14.00" fill="#000000">2</text>
</g>
<!-- CISC355 -->
<g id="node9" class="node">
<title>CISC355</title>
<ellipse fill="#ffffff" stroke="#ffffff" cx="103" cy="-1121.8" rx="46.9709" ry="18"/>
<text text-anchor="middle" x="103" y="-1117.6" font-family="Times,serif" font-size="14.00" fill="#000000">CISC355</text>
</g>
<!-- CISC355&#45;&#45;CISC108 -->
<g id="edge13" class="edge">
<title>CISC355--CISC108</title>
<path fill="none" stroke="#000000" d="M109.4709,-1103.6963C125.7447,-1058.1664 168.2356,-939.2886 184.5197,-893.7302"/>
<text text-anchor="middle" x="169.5" y="-973.2" font-family="Times,serif" font-size="14.00" fill="#000000">4</text>
</g>
<!-- CISC499 -->
<g id="node15" class="node">
<title>CISC499</title>
<ellipse fill="#ffffff" stroke="#ffffff" cx="355" cy="-977.4" rx="46.9709" ry="18"/>
<text text-anchor="middle" x="355" y="-973.2" font-family="Times,serif" font-size="14.00" fill="#000000">CISC499</text>
</g>
<!-- CISC355&#45;&#45;CISC499 -->
<g id="edge14" class="edge">
<title>CISC355--CISC499</title>
<path fill="none" stroke="#000000" d="M129.4921,-1106.6196C178.0171,-1078.814 280.6028,-1020.0308 328.8628,-992.377"/>
<text text-anchor="middle" x="194.5" y="-1073.2" font-family="Times,serif" font-size="14.00" fill="#000000">3</text>
</g>
<!-- CISC275 -->
<g id="node10" class="node">
<title>CISC275</title>
<ellipse fill="#ffffff" stroke="#ffffff" cx="103" cy="-1337.2" rx="46.9709" ry="18"/>
<text text-anchor="middle" x="103" y="-1333" font-family="Times,serif" font-size="14.00" fill="#000000">CISC275</text>
</g>
<!-- CISC275&#45;&#45;CISC355 -->
<g id="edge6" class="edge">
<title>CISC275--CISC355</title>
<path fill="none" stroke="#000000" d="M103,-1318.8351C103,-1278.0383 103,-1180.2831 103,-1139.8146"/>
<text text-anchor="middle" x="106.5" y="-1213.4" font-family="Times,serif" font-size="14.00" fill="#000000">2</text>
</g>
<!-- CISC498 -->
<g id="node18" class="node">
<title>CISC498</title>
<ellipse fill="#ffffff" stroke="#ffffff" cx="489" cy="-1217.6" rx="46.9709" ry="18"/>
<text text-anchor="middle" x="489" y="-1213.4" font-family="Times,serif" font-size="14.00" fill="#000000">CISC498</text>
</g>
<!-- CISC275&#45;&#45;CISC498 -->
<g id="edge7" class="edge">
<title>CISC275--CISC498</title>
<path fill="none" stroke="#000000" d="M132.6936,-1323.1712C141.9718,-1319.0442 152.3155,-1314.7015 162,-1311.2 263.4858,-1274.5075 386.7181,-1242.503 448.9309,-1227.192"/>
<text text-anchor="middle" x="244.5" y="-1288.6" font-family="Times,serif" font-size="14.00" fill="#000000">2</text>
</g>
<!-- CISC303 -->
<g id="node11" class="node">
<title>CISC303</title>
<ellipse fill="#ffffff" stroke="#ffffff" cx="221" cy="-1502.6" rx="46.9709" ry="18"/>
<text text-anchor="middle" x="221" y="-1498.4" font-family="Times,serif" font-size="14.00" fill="#000000">CISC303</text>
</g>
<!-- CISC303&#45;&#45;CISC275 -->
<g id="edge9" class="edge">
<title>CISC303--CISC275</title>
<path fill="none" stroke="#000000" d="M208.595,-1485.2119C185.9321,-1453.4455 138.0868,-1386.381 115.4159,-1354.6033"/>
<text text-anchor="middle" x="184.5" y="-1435" font-family="Times,serif" font-size="14.00" fill="#000000">1</text>
</g>
<!-- CISC304 -->
<g id="node12" class="node">
<title>CISC304</title>
<ellipse fill="#ffffff" stroke="#ffffff" cx="221" cy="-1337.2" rx="46.9709" ry="18"/>
<text text-anchor="middle" x="221" y="-1333" font-family="Times,serif" font-size="14.00" fill="#000000">CISC304</text>
</g>
<!-- CISC303&#45;&#45;CISC304 -->
<g id="edge10" class="edge">
<title>CISC303--CISC304</title>
<path fill="none" stroke="#000000" d="M221,-1484.5844C221,-1452.852 221,-1387.3396 221,-1355.4451"/>
<text text-anchor="middle" x="224.5" y="-1435" font-family="Times,serif" font-size="14.00" fill="#000000">1</text>
</g>
<!-- CISC260 -->
<g id="node20" class="node">
<title>CISC260</title>
<ellipse fill="#ffffff" stroke="#ffffff" cx="610" cy="-1217.6" rx="46.9709" ry="18"/>
<text text-anchor="middle" x="610" y="-1213.4" font-family="Times,serif" font-size="14.00" fill="#000000">CISC260</text>
</g>
<!-- CISC303&#45;&#45;CISC260 -->
<g id="edge8" class="edge">
<title>CISC303--CISC260</title>
<path fill="none" stroke="#000000" d="M246.54,-1487.3342C303.5055,-1452.8148 444.3312,-1364.8507 551,-1276.4 566.6962,-1263.3846 583.0003,-1246.8689 594.4811,-1234.6571"/>
<text text-anchor="middle" x="391.5" y="-1400.2" font-family="Times,serif" font-size="14.00" fill="#000000">2</text>
</g>
<!-- CISC483 -->
<g id="node13" class="node">
<title>CISC483</title>
<ellipse fill="#ffffff" stroke="#ffffff" cx="221" cy="-1121.8" rx="46.9709" ry="18"/>
<text text-anchor="middle" x="221" y="-1117.6" font-family="Times,serif" font-size="14.00" fill="#000000">CISC483</text>
</g>
<!-- CISC304&#45;&#45;CISC483 -->
<g id="edge11" class="edge">
<title>CISC304--CISC483</title>
<path fill="none" stroke="#000000" d="M221,-1318.8351C221,-1278.0383 221,-1180.2831 221,-1139.8146"/>
<text text-anchor="middle" x="224.5" y="-1213.4" font-family="Times,serif" font-size="14.00" fill="#000000">3</text>
</g>
<!-- CISC361 -->
<g id="node16" class="node">
<title>CISC361</title>
<ellipse fill="#ffffff" stroke="#ffffff" cx="725" cy="-977.4" rx="46.9709" ry="18"/>
<text text-anchor="middle" x="725" y="-973.2" font-family="Times,serif" font-size="14.00" fill="#000000">CISC361</text>
</g>
<!-- CISC360 -->
<g id="node17" class="node">
<title>CISC360</title>
<ellipse fill="#ffffff" stroke="#ffffff" cx="607" cy="-977.4" rx="46.9709" ry="18"/>
<text text-anchor="middle" x="607" y="-973.2" font-family="Times,serif" font-size="14.00" fill="#000000">CISC360</text>
</g>
<!-- CISC372 -->
<g id="node19" class="node">
<title>CISC372</title>
<ellipse fill="#ffffff" stroke="#ffffff" cx="489" cy="-977.4" rx="46.9709" ry="18"/>
<text text-anchor="middle" x="489" y="-973.2" font-family="Times,serif" font-size="14.00" fill="#000000">CISC372</text>
</g>
<!-- CISC498&#45;&#45;CISC372 -->
<g id="edge17" class="edge">
<title>CISC498--CISC372</title>
<path fill="none" stroke="#000000" d="M489,-1199.546C489,-1155.0315 489,-1040.3971 489,-995.6635"/>
<text text-anchor="middle" x="492.5" y="-1117.6" font-family="Times,serif" font-size="14.00" fill="#000000">2</text>
</g>
<!-- CISC260&#45;&#45;CISC361 -->
<g id="edge5" class="edge">
<title>CISC260--CISC361</title>
<path fill="none" stroke="#000000" d="M618.6437,-1199.546C640.008,-1154.9224 695.1083,-1039.8348 716.4129,-995.3359"/>
<text text-anchor="middle" x="670.5" y="-1117.6" font-family="Times,serif" font-size="14.00" fill="#000000">1</text>
</g>
<!-- CISC260&#45;&#45;CISC360 -->
<g id="edge4" class="edge">
<title>CISC260--CISC360</title>
<path fill="none" stroke="#000000" d="M609.7745,-1199.546C609.2185,-1155.0315 607.7868,-1040.3971 607.2281,-995.6635"/>
<text text-anchor="middle" x="612.5" y="-1117.6" font-family="Times,serif" font-size="14.00" fill="#000000">6</text>
</g>
</g>
</svg>