<?xml version="1.0" encoding="UTF-8" standalone="no"?><!DOCTYPE svg PUBLIC "-//W3C//DTD SVG 1.1//EN" "http://www.w3.org/Graphics/SVG/1.1/DTD/svg11.dtd"><!-- Generated by graphviz version 2.40.1 (20161225.0304)
 --><!-- Title: G Pages: 1 --><svg xmlns="http://www.w3.org/2000/svg" xmlns:xlink="http://www.w3.org/1999/xlink" width="674pt" height="1453pt" viewBox="0.00 0.00 674.00 1452.60">
<g id="graph0" class="graph" transform="scale(1 1) rotate(0) translate(4 1448.6)">
<title>G</title>
<polygon fill="#ffffff" stroke="transparent" points="-4,4 -4,-1448.6 670,-1448.6 670,4 -4,4"/>
<g id="clust1" class="cluster">
<title>cluster_quad</title>
<polygon fill="none" stroke="#000000" points="394,-742.8 394,-1292.2 638,-1292.2 638,-742.8 394,-742.8"/>
<text text-anchor="middle" x="516" y="-1275.6" font-family="Times,serif" font-size="14.00" fill="#000000">The Quad</text>
</g>
<g id="clust2" class="cluster">
<title>cluster_17</title>
<polygon fill="#d3d3d3" stroke="#d3d3d3" points="402,-991 402,-1067.8 512,-1067.8 512,-991 402,-991"/>
<text text-anchor="middle" x="457" y="-1051.2" font-family="Times,serif" font-size="14.00" fill="#000000">Kirkbride Hall</text>
</g>
<g id="clust3" class="cluster">
<title>cluster_0</title>
<polygon fill="#d3d3d3" stroke="#d3d3d3" points="402,-1182.6 402,-1259.4 576,-1259.4 576,-1182.6 402,-1182.6"/>
<text text-anchor="middle" x="489" y="-1242.8" font-family="Times,serif" font-size="14.00" fill="#000000">Smith Hall</text>
</g>
<g id="clust4" class="cluster">
<title>cluster_1</title>
<polygon fill="#d3d3d3" stroke="#d3d3d3" points="520,-991 520,-1067.8 630,-1067.8 630,-991 520,-991"/>
<text text-anchor="middle" x="575" y="-1051.2" font-family="Times,serif" font-size="14.00" fill="#000000">Purnell Hall</text>
</g>
<g id="clust5" class="cluster">
<title>cluster_2</title>
<polygon fill="#d3d3d3" stroke="#d3d3d3" points="520,-750.8 520,-827.6 630,-827.6 630,-750.8 520,-750.8"/>
<text text-anchor="middle" x="575" y="-811" font-family="Times,serif" font-size="14.00" fill="#000000">Ewing Hall</text>
</g>
<g id="clust6" class="cluster">
<title>cluster_north</title>
<polygon fill="none" stroke="#000000" points="492,-427 492,-710 658,-710 658,-427 492,-427"/>
<text text-anchor="middle" x="575" y="-693.4" font-family="Times,serif" font-size="14.00" fill="#000000">Main St. / N. College Ave.</text>
</g>
<g id="clust7" class="cluster">
<title>cluster_4</title>
<polygon fill="#d3d3d3" stroke="#d3d3d3" points="520,-435 520,-511.8 630,-511.8 630,-435 520,-435"/>
<text text-anchor="middle" x="575" y="-495.2" font-family="Times,serif" font-size="14.00" fill="#000000">McDowell Hall</text>
</g>
<g id="clust8" class="cluster">
<title>cluster_3</title>
<polygon fill="#d3d3d3" stroke="#d3d3d3" points="520,-600.4 520,-677.2 630,-677.2 630,-600.4 520,-600.4"/>
<text text-anchor="middle" x="575" y="-660.6" font-family="Times,serif" font-size="14.00" fill="#000000">Willard Hall</text>
</g>
<g id="clust9" class="cluster">
<title>cluster_main_green</title>
<polygon fill="none" stroke="#000000" points="8,-8 8,-1436.6 252,-1436.6 252,-8 8,-8"/>
<text text-anchor="middle" x="130" y="-1420" font-family="Times,serif" font-size="14.00" fill="#000000">Main Green</text>
</g>
<g id="clust10" class="cluster">
<title>cluster_6</title>
<polygon fill="#d3d3d3" stroke="#d3d3d3" points="134,-1327 134,-1403.8 244,-1403.8 244,-1327 134,-1327"/>
<text text-anchor="middle" x="189" y="-1387.2" font-family="Times,serif" font-size="14.00" fill="#000000">Gore Hall</text>
</g>
<g id="clust11" class="cluster">
<title>cluster_7</title>
<polygon fill="#d3d3d3" stroke="#d3d3d3" points="16,-1086.8 16,-1163.6 126,-1163.6 126,-1086.8 16,-1086.8"/>
<text text-anchor="middle" x="71" y="-1147" font-family="Times,serif" font-size="14.00" fill="#000000">Mitchell Hall</text>
</g>
<g id="clust12" class="cluster">
<title>cluster_8</title>
<polygon fill="#d3d3d3" stroke="#d3d3d3" points="134,-895.2 134,-972 244,-972 244,-895.2 134,-895.2"/>
<text text-anchor="middle" x="189" y="-955.4" font-family="Times,serif" font-size="14.00" fill="#000000">Memorial Hall</text>
</g>
<g id="clust13" class="cluster">
<title>cluster_10</title>
<polygon fill="#d3d3d3" stroke="#d3d3d3" points="102,-600.4 102,-677.2 244,-677.2 244,-600.4 102,-600.4"/>
<text text-anchor="middle" x="173" y="-660.6" font-family="Times,serif" font-size="14.00" fill="#000000">Lammont du Pont Lab</text>
</g>
<g id="clust14" class="cluster">
<title>cluster_11</title>
<polygon fill="#d3d3d3" stroke="#d3d3d3" points="134,-435 134,-511.8 244,-511.8 244,-435 134,-435"/>
<text text-anchor="middle" x="189" y="-495.2" font-family="Times,serif" font-size="14.00" fill="#000000">Brown Lab</text>
</g>
<g id="clust15" class="cluster">
<title>cluster_12</title>
<polygon fill="#d3d3d3" stroke="#d3d3d3" points="134,-213.6 134,-290.4 244,-290.4 244,-213.6 134,-213.6"/>
<text text-anchor="middle" x="189" y="-273.8" font-family="Times,serif" font-size="14.00" fill="#000000">Du Pont Hall</text>
</g>
<g id="clust16" class="cluster">
<title>cluster_13</title>
<polygon fill="#d3d3d3" stroke="#d3d3d3" points="134,-16 134,-92.8 244,-92.8 244,-16 134,-16"/>
<text text-anchor="middle" x="189" y="-76.2" font-family="Times,serif" font-size="14.00" fill="#000000">Wolf Hall</text>
</g>
<g id="clust17" class="cluster">
<title>cluster_19</title>
<polygon fill="#d3d3d3" stroke="#d3d3d3" points="134,-1086.8 134,-1163.6 244,-1163.6 244,-1086.8 134,-1086.8"/>
<text text-anchor="middle" x="189" y="-1147" font-family="Times,serif" font-size="14.00" fill="#000000">Sharp Lab</text>
</g>
<g id="clust18" class="cluster">
<title>cluster_morris</title>
<polygon fill="none" stroke="#000000" points="260,-742.8 260,-860.4 386,-860.4 386,-742.8 260,-742.8"/>
<text text-anchor="middle" x="323" y="-843.8" font-family="Times,serif" font-size="14.00" fill="#000000">South Green</text>
</g>
<g id="clust19" class="cluster">
<title>cluster_9</title>
<polygon fill="#d3d3d3" stroke="#d3d3d3" points="268,-750.8 268,-827.6 378,-827.6 378,-750.8 268,-750.8"/>
<text text-anchor="middle" x="323" y="-811" font-family="Times,serif" font-size="14.00" fill="#000000">Morris Library</text>
</g>
<g id="clust20" class="cluster">
<title>cluster_academy</title>
<polygon fill="none" stroke="#000000" points="260,-109.8 260,-394.2 622,-394.2 622,-109.8 260,-109.8"/>
</g>
<g id="clust21" class="cluster">
<title>cluster_20</title>
<polygon fill="#d3d3d3" stroke="#d3d3d3" points="268,-117.8 268,-194.6 378,-194.6 378,-117.8 268,-117.8"/>
<text text-anchor="middle" x="323" y="-178" font-family="Times,serif" font-size="14.00" fill="#000000">Spencer Lab</text>
</g>
<g id="clust22" class="cluster">
<title>cluster_16</title>
<polygon fill="#d3d3d3" stroke="#d3d3d3" points="386,-117.8 386,-194.6 496,-194.6 496,-117.8 386,-117.8"/>
<text text-anchor="middle" x="441" y="-178" font-family="Times,serif" font-size="14.00" fill="#000000">ISE Lab</text>
</g>
<g id="clust23" class="cluster">
<title>cluster_14</title>
<polygon fill="#d3d3d3" stroke="#d3d3d3" points="415,-309.4 415,-386.2 528,-386.2 528,-309.4 415,-309.4"/>
<text text-anchor="middle" x="471.5" y="-369.6" font-family="Times,serif" font-size="14.00" fill="#000000">Alison Hall West</text>
</g>
<g id="clust24" class="cluster">
<title>cluster_15</title>
<polygon fill="#d3d3d3" stroke="#d3d3d3" points="504,-117.8 504,-194.6 614,-194.6 614,-117.8 504,-117.8"/>
<text text-anchor="middle" x="559" y="-178" font-family="Times,serif" font-size="14.00" fill="#000000">Alison Hall</text>
</g>
<g id="clust25" class="cluster">
<title>cluster_5</title>
<polygon fill="#d3d3d3" stroke="#d3d3d3" points="268,-309.4 268,-386.2 378,-386.2 378,-309.4 268,-309.4"/>
<text text-anchor="middle" x="323" y="-369.6" font-family="Times,serif" font-size="14.00" fill="#000000">Colburn Lab</text>
</g>
<!-- CISC210 -->
<g id="node1" class="node">
<title>CISC210</title>
<ellipse fill="#ffffff" stroke="#ffffff" cx="457" cy="-1017" rx="46.9709" ry="18"/>
<text text-anchor="middle" x="457" y="-1012.8" font-family="Times,serif" font-size="14.00" fill="#000000">CISC210</text>
</g>
<!-- CentralUDServer -->
<g id="node2" class="node">
<title>CentralUDServer</title>
<ellipse fill="#ffffff" stroke="#ffffff" cx="489" cy="-1208.6" rx="78.7066" ry="18"/>
<text text-anchor="middle" x="489" y="-1204.4" font-family="Times,serif" font-size="14.00" fill="#000000">CentralUDServer</text>
</g>
<!-- CentralUDServer&#45;&#45;CISC210 -->
<g id="edge18" class="edge">
<title>CentralUDServer--CISC210</title>
<path fill="none" stroke="#000000" d="M485.9895,-1190.5747C479.8906,-1154.0574 466.1375,-1071.7109 460.0258,-1035.1169"/>
<text text-anchor="middle" x="484.5" y="-1108.6" font-family="Times,serif" font-size="14.00" fill="#000000">2</text>
</g>
<!-- CISC481 -->
<g id="node3" class="node">
<title>CISC481</title>
<ellipse fill="#ffffff" stroke="#ffffff" cx="575" cy="-1017" rx="46.9709" ry="18"/>
<text text-anchor="middle" x="575" y="-1012.8" font-family="Times,serif" font-size="14.00" fill="#000000">CISC481</text>
</g>
<!-- CentralUDServer&#45;&#45;CISC481 -->
<g id="edge19" class="edge">
<title>CentralUDServer--CISC481</title>
<path fill="none" stroke="#000000" d="M497.0907,-1190.5747C513.5234,-1153.9642 550.6316,-1071.2905 566.9935,-1034.8378"/>
<text text-anchor="middle" x="546.5" y="-1108.6" font-family="Times,serif" font-size="14.00" fill="#000000">2</text>
</g>
<!-- CISC437 -->
<g id="node4" class="node">
<title>CISC437</title>
<ellipse fill="#ffffff" stroke="#ffffff" cx="575" cy="-776.8" rx="46.9709" ry="18"/>
<text text-anchor="middle" x="575" y="-772.6" font-family="Times,serif" font-size="14.00" fill="#000000">CISC437</text>
</g>
<!-- CISC481&#45;&#45;CISC437 -->
<g id="edge16" class="edge">
<title>CISC481--CISC437</title>
<path fill="none" stroke="#000000" d="M575,-998.946C575,-954.4315 575,-839.7971 575,-795.0635"/>
<text text-anchor="middle" x="578.5" y="-917" font-family="Times,serif" font-size="14.00" fill="#000000">2</text>
</g>
<!-- CISC320 -->
<g id="node6" class="node">
<title>CISC320</title>
<ellipse fill="#ffffff" stroke="#ffffff" cx="575" cy="-626.4" rx="46.9709" ry="18"/>
<text text-anchor="middle" x="575" y="-622.2" font-family="Times,serif" font-size="14.00" fill="#000000">CISC320</text>
</g>
<!-- CISC437&#45;&#45;CISC320 -->
<g id="edge15" class="edge">
<title>CISC437--CISC320</title>
<path fill="none" stroke="#000000" d="M575,-758.6582C575,-729.7507 575,-673.5541 575,-644.6061"/>
<text text-anchor="middle" x="578.5" y="-722.2" font-family="Times,serif" font-size="14.00" fill="#000000">9</text>
</g>
<!-- CISC484 -->
<g id="node5" class="node">
<title>CISC484</title>
<ellipse fill="#ffffff" stroke="#ffffff" cx="575" cy="-461" rx="46.9709" ry="18"/>
<text text-anchor="middle" x="575" y="-456.8" font-family="Times,serif" font-size="14.00" fill="#000000">CISC484</text>
</g>
<!-- CISC320&#45;&#45;CISC484 -->
<g id="edge12" class="edge">
<title>CISC320--CISC484</title>
<path fill="none" stroke="#000000" d="M575,-608.3844C575,-576.652 575,-511.1396 575,-479.2451"/>
<text text-anchor="middle" x="578.5" y="-558.8" font-family="Times,serif" font-size="14.00" fill="#000000">4</text>
</g>
<!-- CISC181 -->
<g id="node7" class="node">
<title>CISC181</title>
<ellipse fill="#ffffff" stroke="#ffffff" cx="189" cy="-1353" rx="46.9709" ry="18"/>
<text text-anchor="middle" x="189" y="-1348.8" font-family="Times,serif" font-size="14.00" fill="#000000">CISC181</text>
</g>
<!-- CISC181&#45;&#45;CentralUDServer -->
<g id="edge4" class="edge">
<title>CISC181--CentralUDServer</title>
<path fill="none" stroke="#000000" d="M218.3115,-1338.8914C274.1901,-1311.9951 395.6651,-1253.5252 455.0046,-1224.9631"/>
<text text-anchor="middle" x="297.5" y="-1304.4" font-family="Times,serif" font-size="14.00" fill="#000000">8</text>
</g>
<!-- CISC108 -->
<g id="node8" class="node">
<title>CISC108</title>
<ellipse fill="#ffffff" stroke="#ffffff" cx="71" cy="-1112.8" rx="46.9709" ry="18"/>
<text text-anchor="middle" x="71" y="-1108.6" font-family="Times,serif" font-size="14.00" fill="#000000">CISC108</text>
</g>
<!-- CISC181&#45;&#45;CISC108 -->
<g id="edge2" class="edge">
<title>CISC181--CISC108</title>
<path fill="none" stroke="#000000" d="M180.1308,-1334.946C158.2092,-1290.3224 101.6715,-1175.2348 79.8111,-1130.7359"/>
<text text-anchor="middle" x="161.5" y="-1204.4" font-family="Times,serif" font-size="14.00" fill="#000000">2</text>
</g>
<!-- CISC220 -->
<g id="node14" class="node">
<title>CISC220</title>
<ellipse fill="#ffffff" stroke="#ffffff" cx="189" cy="-1112.8" rx="46.9709" ry="18"/>
<text text-anchor="middle" x="189" y="-1108.6" font-family="Times,serif" font-size="14.00" fill="#000000">CISC220</text>
</g>
<!-- CISC181&#45;&#45;CISC220 -->
<g id="edge3" class="edge">
<title>CISC181--CISC220</title>
<path fill="none" stroke="#000000" d="M189,-1334.946C189,-1290.4315 189,-1175.7971 189,-1131.0635"/>
<text text-anchor="middle" x="192.5" y="-1204.4" font-family="Times,serif" font-size="14.00" fill="#000000">3</text>
</g>
<!-- CISC355 -->
<g id="node9" class="node">
<title>CISC355</title>
<ellipse fill="#ffffff" stroke="#ffffff" cx="189" cy="-921.2" rx="46.9709" ry="18"/>
<text text-anchor="middle" x="189" y="-917" font-family="Times,serif" font-size="14.00" fill="#000000">CISC355</text>
</g>
<!-- CISC108&#45;&#45;CISC355 -->
<g id="edge1" class="edge">
<title>CISC108--CISC355</title>
<path fill="none" stroke="#000000" d="M81.8896,-1095.1182C104.3691,-1058.6176 155.6797,-975.3031 178.1367,-938.8391"/>
<text text-anchor="middle" x="148.5" y="-1012.8" font-family="Times,serif" font-size="14.00" fill="#000000">4</text>
</g>
<!-- CISC275 -->
<g id="node10" class="node">
<title>CISC275</title>
<ellipse fill="#ffffff" stroke="#ffffff" cx="189" cy="-626.4" rx="46.9709" ry="18"/>
<text text-anchor="middle" x="189" y="-622.2" font-family="Times,serif" font-size="14.00" fill="#000000">CISC275</text>
</g>
<!-- CISC355&#45;&#45;CISC275 -->
<g id="edge13" class="edge">
<title>CISC355--CISC275</title>
<path fill="none" stroke="#000000" d="M189,-902.7589C189,-849.6908 189,-697.0429 189,-644.4577"/>
<text text-anchor="middle" x="192.5" y="-772.6" font-family="Times,serif" font-size="14.00" fill="#000000">2</text>
</g>
<!-- CISC499 -->
<g id="node15" class="node">
<title>CISC499</title>
<ellipse fill="#ffffff" stroke="#ffffff" cx="323" cy="-776.8" rx="46.9709" ry="18"/>
<text text-anchor="middle" x="323" y="-772.6" font-family="Times,serif" font-size="14.00" fill="#000000">CISC499</text>
</g>
<!-- CISC355&#45;&#45;CISC499 -->
<g id="edge14" class="edge">
<title>CISC355--CISC499</title>
<path fill="none" stroke="#000000" d="M204.8978,-904.0684C230.6873,-876.2773 281.3467,-821.686 307.1229,-793.9093"/>
<text text-anchor="middle" x="239.5" y="-872.6" font-family="Times,serif" font-size="14.00" fill="#000000">3</text>
</g>
<!-- CISC303 -->
<g id="node11" class="node">
<title>CISC303</title>
<ellipse fill="#ffffff" stroke="#ffffff" cx="189" cy="-461" rx="46.9709" ry="18"/>
<text text-anchor="middle" x="189" y="-456.8" font-family="Times,serif" font-size="14.00" fill="#000000">CISC303</text>
</g>
<!-- CISC275&#45;&#45;CISC303 -->
<g id="edge7" class="edge">
<title>CISC275--CISC303</title>
<path fill="none" stroke="#000000" d="M189,-608.3844C189,-576.652 189,-511.1396 189,-479.2451"/>
<text text-anchor="middle" x="192.5" y="-558.8" font-family="Times,serif" font-size="14.00" fill="#000000">1</text>
</g>
<!-- CISC498 -->
<g id="node18" class="node">
<title>CISC498</title>
<ellipse fill="#ffffff" stroke="#ffffff" cx="471" cy="-335.4" rx="46.9709" ry="18"/>
<text text-anchor="middle" x="471" y="-331.2" font-family="Times,serif" font-size="14.00" fill="#000000">CISC498</text>
</g>
<!-- CISC275&#45;&#45;CISC498 -->
<g id="edge8" class="edge">
<title>CISC275--CISC498</title>
<path fill="none" stroke="#000000" d="M205.3804,-609.4968C255.2217,-558.0648 404.6729,-403.8439 454.5744,-352.3499"/>
<text text-anchor="middle" x="294.5" y="-524" font-family="Times,serif" font-size="14.00" fill="#000000">2</text>
</g>
<!-- CISC304 -->
<g id="node12" class="node">
<title>CISC304</title>
<ellipse fill="#ffffff" stroke="#ffffff" cx="189" cy="-239.6" rx="46.9709" ry="18"/>
<text text-anchor="middle" x="189" y="-235.4" font-family="Times,serif" font-size="14.00" fill="#000000">CISC304</text>
</g>
<!-- CISC303&#45;&#45;CISC304 -->
<g id="edge10" class="edge">
<title>CISC303--CISC304</title>
<path fill="none" stroke="#000000" d="M189,-442.8819C189,-401.2621 189,-299.2195 189,-257.6579"/>
<text text-anchor="middle" x="192.5" y="-331.2" font-family="Times,serif" font-size="14.00" fill="#000000">1</text>
</g>
<!-- CISC260 -->
<g id="node20" class="node">
<title>CISC260</title>
<ellipse fill="#ffffff" stroke="#ffffff" cx="323" cy="-335.4" rx="46.9709" ry="18"/>
<text text-anchor="middle" x="323" y="-331.2" font-family="Times,serif" font-size="14.00" fill="#000000">CISC260</text>
</g>
<!-- CISC303&#45;&#45;CISC260 -->
<g id="edge9" class="edge">
<title>CISC303--CISC260</title>
<path fill="none" stroke="#000000" d="M206.7942,-444.3213C232.4235,-420.2986 279.462,-376.2088 305.1322,-352.1477"/>
<text text-anchor="middle" x="250.5" y="-406.4" font-family="Times,serif" font-size="14.00" fill="#000000">2</text>
</g>
<!-- CISC483 -->
<g id="node13" class="node">
<title>CISC483</title>
<ellipse fill="#ffffff" stroke="#ffffff" cx="189" cy="-42" rx="46.9709" ry="18"/>
<text text-anchor="middle" x="189" y="-37.8" font-family="Times,serif" font-size="14.00" fill="#000000">CISC483</text>
</g>
<!-- CISC304&#45;&#45;CISC483 -->
<g id="edge11" class="edge">
<title>CISC304--CISC483</title>
<path fill="none" stroke="#000000" d="M189,-221.3645C189,-183.7208 189,-97.7974 189,-60.1915"/>
<text text-anchor="middle" x="192.5" y="-139.6" font-family="Times,serif" font-size="14.00" fill="#000000">3</text>
</g>
<!-- CISC361 -->
<g id="node16" class="node">
<title>CISC361</title>
<ellipse fill="#ffffff" stroke="#ffffff" cx="323" cy="-143.8" rx="46.9709" ry="18"/>
<text text-anchor="middle" x="323" y="-139.6" font-family="Times,serif" font-size="14.00" fill="#000000">CISC361</text>
</g>
<!-- CISC360 -->
<g id="node17" class="node">
<title>CISC360</title>
<ellipse fill="#ffffff" stroke="#ffffff" cx="441" cy="-143.8" rx="46.9709" ry="18"/>
<text text-anchor="middle" x="441" y="-139.6" font-family="Times,serif" font-size="14.00" fill="#000000">CISC360</text>
</g>
<!-- CISC372 -->
<g id="node19" class="node">
<title>CISC372</title>
<ellipse fill="#ffffff" stroke="#ffffff" cx="559" cy="-143.8" rx="46.9709" ry="18"/>
<text text-anchor="middle" x="559" y="-139.6" font-family="Times,serif" font-size="14.00" fill="#000000">CISC372</text>
</g>
<!-- CISC498&#45;&#45;CISC372 -->
<g id="edge17" class="edge">
<title>CISC498--CISC372</title>
<path fill="none" stroke="#000000" d="M479.2788,-317.3747C496.0937,-280.7642 534.0649,-198.0905 550.8073,-161.6378"/>
<text text-anchor="middle" x="529.5" y="-235.4" font-family="Times,serif" font-size="14.00" fill="#000000">2</text>
</g>
<!-- CISC260&#45;&#45;CISC361 -->
<g id="edge6" class="edge">
<title>CISC260--CISC361</title>
<path fill="none" stroke="#000000" d="M323,-317.3747C323,-280.8574 323,-198.5109 323,-161.9169"/>
<text text-anchor="middle" x="326.5" y="-235.4" font-family="Times,serif" font-size="14.00" fill="#000000">1</text>
</g>
<!-- CISC260&#45;&#45;CISC360 -->
<g id="edge5" class="edge">
<title>CISC260--CISC360</title>
<path fill="none" stroke="#000000" d="M333.8896,-317.7182C356.3691,-281.2176 407.6797,-197.9031 430.1367,-161.4391"/>
<text text-anchor="middle" x="400.5" y="-235.4" font-family="Times,serif" font-size="14.00" fill="#000000">6</text>
</g>
</g>
</svg>